<?xml version="1.0" encoding="utf-8" ?>
<svg baseProfile="full" height="1050" version="1.1" width="1160" xmlns="http://www.w3.org/2000/svg" xmlns:ev="http://www.w3.org/2001/xml-events" xmlns:xlink="http://www.w3.org/1999/xlink"><defs /><rect fill="white" height="1050" width="1160" x="0" y="0" /><text fill="black" font-size="24" font-weight="bold" text-anchor="middle" x="580" y="40">Colored Pencil Palette (48 Colors)</text><rect fill="rgb(237, 28, 36)" height="60" stroke="black" stroke-width="1" width="60" x="20" y="80" /><text fill="black" font-size="14" font-weight="bold" text-anchor="start" x="95" y="100">Red</text><text fill="gray" font-size="10" text-anchor="start" x="95" y="120">RGB(237, 28, 36)</text><rect fill="rgb(220, 20, 60)" height="60" stroke="black" stroke-width="1" width="60" x="300" y="80" /><text fill="black" font-size="14" font-weight="bold" text-anchor="start" x="375" y="100">Crimson Red</text><text fill="gray" font-size="10" text-anchor="start" x="375" y="120">RGB(220, 20, 60)</text><rect fill="rgb(255, 36, 0)" height="60" stroke="black" stroke-width="1" width="60" x="580" y="80" /><text fill="black" font-size="14" font-weight="bold" text-anchor="start" x="655" y="100">Scarlet</text><text fill="gray" font-size="10" text-anchor="start" x="655" y="120">RGB(255, 36, 0)</text><rect fill="rgb(255, 127, 39)" height="60" stroke="black" stroke-width="1" width="60" x="860" y="80" /><text fill="black" font-size="14" font-weight="bold" text-anchor="start" x="935" y="100">Orange</text><text fill="gray" font-size="10" text-anchor="start" x="935" y="120">RGB(255, 127, 39)</text><rect fill="rgb(255, 201, 14)" height="60" stroke="black" stroke-width="1" width="60" x="20" y="160" /><text fill="black" font-size="14" font-weight="bold" text-anchor="start" x="95" y="180">Yellow Orange</text><text fill="gray" font-size="10" text-anchor="start" x="95" y="200">RGB(255, 201, 14)</text><rect fill="rgb(255, 242, 0)" height="60" stroke="black" stroke-width="1" width="60" x="300" y="160" /><text fill="black" font-size="14" font-weight="bold" text-anchor="start" x="375" y="180">Yellow</text><text fill="gray" font-size="10" text-anchor="start" x="375" y="200">RGB(255, 242, 0)</text><rect fill="rgb(181, 230, 29)" height="60" stroke="black" stroke-width="1" width="60" x="580" y="160" /><text fill="black" font-size="14" font-weight="bold" text-anchor="start" x="655" y="180">Green Yellow</text><text fill="gray" font-size="10" text-anchor="start" x="655" y="200">RGB(181, 230, 29)</text><rect fill="rgb(140, 198, 63)" height="60" stroke="black" stroke-width="1" width="60" x="860" y="160" /><text fill="black" font-size="14" font-weight="bold" text-anchor="start" x="935" y="180">Yellow Green</text><text fill="gray" font-size="10" text-anchor="start" x="935" y="200">RGB(140, 198, 63)</text><rect fill="rgb(0, 162, 82)" height="60" stroke="black" stroke-width="1" width="60" x="20" y="240" /><text fill="black" font-size="14" font-weight="bold" text-anchor="start" x="95" y="260">Green</text><text fill="gray" font-size="10" text-anchor="start" x="95" y="280">RGB(0, 162, 82)</text><rect fill="rgb(34, 139, 34)" height="60" stroke="black" stroke-width="1" width="60" x="300" y="240" /><text fill="black" font-size="14" font-weight="bold" text-anchor="start" x="375" y="260">Forest Green</text><text fill="gray" font-size="10" text-anchor="start" x="375" y="280">RGB(34, 139, 34)</text><rect fill="rgb(0, 150, 136)" height="60" stroke="black" stroke-width="1" width="60" x="580" y="240" /><text fill="black" font-size="14" font-weight="bold" text-anchor="start" x="655" y="260">Blue Green</text><text fill="gray" font-size="10" text-anchor="start" x="655" y="280">RGB(0, 150, 136)</text><rect fill="rgb(64, 224, 208)" height="60" stroke="black" stroke-width="1" width="60" x="860" y="240" /><text fill="black" font-size="14" font-weight="bold" text-anchor="start" x="935" y="260">Turquoise</text><text fill="gray" font-size="10" text-anchor="start" x="935" y="280">RGB(64, 224, 208)</text><rect fill="rgb(135, 206, 235)" height="60" stroke="black" stroke-width="1" width="60" x="20" y="320" /><text fill="black" font-size="14" font-weight="bold" text-anchor="start" x="95" y="340">Sky Blue</text><text fill="gray" font-size="10" text-anchor="start" x="95" y="360">RGB(135, 206, 235)</text><rect fill="rgb(0, 114, 188)" height="60" stroke="black" stroke-width="1" width="60" x="300" y="320" /><text fill="black" font-size="14" font-weight="bold" text-anchor="start" x="375" y="340">Blue</text><text fill="gray" font-size="10" text-anchor="start" x="375" y="360">RGB(0, 114, 188)</text><rect fill="rgb(0, 0, 128)" height="60" stroke="black" stroke-width="1" width="60" x="580" y="320" /><text fill="black" font-size="14" font-weight="bold" text-anchor="start" x="655" y="340">Navy Blue</text><text fill="gray" font-size="10" text-anchor="start" x="655" y="360">RGB(0, 0, 128)</text><rect fill="rgb(148, 0, 211)" height="60" stroke="black" stroke-width="1" width="60" x="860" y="320" /><text fill="black" font-size="14" font-weight="bold" text-anchor="start" x="935" y="340">Violet</text><text fill="gray" font-size="10" text-anchor="start" x="935" y="360">RGB(148, 0, 211)</text><rect fill="rgb(128, 0, 128)" height="60" stroke="black" stroke-width="1" width="60" x="20" y="400" /><text fill="black" font-size="14" font-weight="bold" text-anchor="start" x="95" y="420">Purple</text><text fill="gray" font-size="10" text-anchor="start" x="95" y="440">RGB(128, 0, 128)</text><rect fill="rgb(236, 0, 140)" height="60" stroke="black" stroke-width="1" width="60" x="300" y="400" /><text fill="black" font-size="14" font-weight="bold" text-anchor="start" x="375" y="420">Magenta</text><text fill="gray" font-size="10" text-anchor="start" x="375" y="440">RGB(236, 0, 140)</text><rect fill="rgb(255, 192, 203)" height="60" stroke="black" stroke-width="1" width="60" x="580" y="400" /><text fill="black" font-size="14" font-weight="bold" text-anchor="start" x="655" y="420">Pink</text><text fill="gray" font-size="10" text-anchor="start" x="655" y="440">RGB(255, 192, 203)</text><rect fill="rgb(255, 105, 180)" height="60" stroke="black" stroke-width="1" width="60" x="860" y="400" /><text fill="black" font-size="14" font-weight="bold" text-anchor="start" x="935" y="420">Hot Pink</text><text fill="gray" font-size="10" text-anchor="start" x="935" y="440">RGB(255, 105, 180)</text><rect fill="rgb(139, 69, 19)" height="60" stroke="black" stroke-width="1" width="60" x="20" y="480" /><text fill="black" font-size="14" font-weight="bold" text-anchor="start" x="95" y="500">Brown</text><text fill="gray" font-size="10" text-anchor="start" x="95" y="520">RGB(139, 69, 19)</text><rect fill="rgb(210, 180, 140)" height="60" stroke="black" stroke-width="1" width="60" x="300" y="480" /><text fill="black" font-size="14" font-weight="bold" text-anchor="start" x="375" y="500">Tan</text><text fill="gray" font-size="10" text-anchor="start" x="375" y="520">RGB(210, 180, 140)</text><rect fill="rgb(255, 218, 185)" height="60" stroke="black" stroke-width="1" width="60" x="580" y="480" /><text fill="black" font-size="14" font-weight="bold" text-anchor="start" x="655" y="500">Peach</text><text fill="gray" font-size="10" text-anchor="start" x="655" y="520">RGB(255, 218, 185)</text><rect fill="rgb(0, 0, 0)" height="60" stroke="black" stroke-width="1" width="60" x="860" y="480" /><text fill="black" font-size="14" font-weight="bold" text-anchor="start" x="935" y="500">Black</text><text fill="gray" font-size="10" text-anchor="start" x="935" y="520">RGB(0, 0, 0)</text><rect fill="rgb(64, 64, 64)" height="60" stroke="black" stroke-width="1" width="60" x="20" y="560" /><text fill="black" font-size="14" font-weight="bold" text-anchor="start" x="95" y="580">Dark Gray</text><text fill="gray" font-size="10" text-anchor="start" x="95" y="600">RGB(64, 64, 64)</text><rect fill="rgb(128, 128, 128)" height="60" stroke="black" stroke-width="1" width="60" x="300" y="560" /><text fill="black" font-size="14" font-weight="bold" text-anchor="start" x="375" y="580">Gray</text><text fill="gray" font-size="10" text-anchor="start" x="375" y="600">RGB(128, 128, 128)</text><rect fill="rgb(192, 192, 192)" height="60" stroke="black" stroke-width="1" width="60" x="580" y="560" /><text fill="black" font-size="14" font-weight="bold" text-anchor="start" x="655" y="580">Light Gray</text><text fill="gray" font-size="10" text-anchor="start" x="655" y="600">RGB(192, 192, 192)</text><rect fill="rgb(255, 255, 255)" height="60" stroke="black" stroke-width="1" width="60" x="860" y="560" /><text fill="black" font-size="14" font-weight="bold" text-anchor="start" x="935" y="580">White</text><text fill="gray" font-size="10" text-anchor="start" x="935" y="600">RGB(255, 255, 255)</text><rect fill="rgb(128, 0, 0)" height="60" stroke="black" stroke-width="1" width="60" x="20" y="640" /><text fill="black" font-size="14" font-weight="bold" text-anchor="start" x="95" y="660">Maroon</text><text fill="gray" font-size="10" text-anchor="start" x="95" y="680">RGB(128, 0, 0)</text><rect fill="rgb(204, 85, 0)" height="60" stroke="black" stroke-width="1" width="60" x="300" y="640" /><text fill="black" font-size="14" font-weight="bold" text-anchor="start" x="375" y="660">Burnt Orange</text><text fill="gray" font-size="10" text-anchor="start" x="375" y="680">RGB(204, 85, 0)</text><rect fill="rgb(255, 215, 0)" height="60" stroke="black" stroke-width="1" width="60" x="580" y="640" /><text fill="black" font-size="14" font-weight="bold" text-anchor="start" x="655" y="660">Gold</text><text fill="gray" font-size="10" text-anchor="start" x="655" y="680">RGB(255, 215, 0)</text><rect fill="rgb(128, 128, 0)" height="60" stroke="black" stroke-width="1" width="60" x="860" y="640" /><text fill="black" font-size="14" font-weight="bold" text-anchor="start" x="935" y="660">Olive Green</text><text fill="gray" font-size="10" text-anchor="start" x="935" y="680">RGB(128, 128, 0)</text><rect fill="rgb(152, 251, 152)" height="60" stroke="black" stroke-width="1" width="60" x="20" y="720" /><text fill="black" font-size="14" font-weight="bold" text-anchor="start" x="95" y="740">Mint Green</text><text fill="gray" font-size="10" text-anchor="start" x="95" y="760">RGB(152, 251, 152)</text><rect fill="rgb(0, 128, 128)" height="60" stroke="black" stroke-width="1" width="60" x="300" y="720" /><text fill="black" font-size="14" font-weight="bold" text-anchor="start" x="375" y="740">Teal</text><text fill="gray" font-size="10" text-anchor="start" x="375" y="760">RGB(0, 128, 128)</text><rect fill="rgb(65, 105, 225)" height="60" stroke="black" stroke-width="1" width="60" x="580" y="720" /><text fill="black" font-size="14" font-weight="bold" text-anchor="start" x="655" y="740">Royal Blue</text><text fill="gray" font-size="10" text-anchor="start" x="655" y="760">RGB(65, 105, 225)</text><rect fill="rgb(75, 0, 130)" height="60" stroke="black" stroke-width="1" width="60" x="860" y="720" /><text fill="black" font-size="14" font-weight="bold" text-anchor="start" x="935" y="740">Indigo</text><text fill="gray" font-size="10" text-anchor="start" x="935" y="760">RGB(75, 0, 130)</text><rect fill="rgb(221, 160, 221)" height="60" stroke="black" stroke-width="1" width="60" x="20" y="800" /><text fill="black" font-size="14" font-weight="bold" text-anchor="start" x="95" y="820">Plum</text><text fill="gray" font-size="10" text-anchor="start" x="95" y="840">RGB(221, 160, 221)</text><rect fill="rgb(255, 0, 127)" height="60" stroke="black" stroke-width="1" width="60" x="300" y="800" /><text fill="black" font-size="14" font-weight="bold" text-anchor="start" x="375" y="820">Rose</text><text fill="gray" font-size="10" text-anchor="start" x="375" y="840">RGB(255, 0, 127)</text><rect fill="rgb(250, 128, 114)" height="60" stroke="black" stroke-width="1" width="60" x="580" y="800" /><text fill="black" font-size="14" font-weight="bold" text-anchor="start" x="655" y="820">Salmon</text><text fill="gray" font-size="10" text-anchor="start" x="655" y="840">RGB(250, 128, 114)</text><rect fill="rgb(210, 105, 30)" height="60" stroke="black" stroke-width="1" width="60" x="860" y="800" /><text fill="black" font-size="14" font-weight="bold" text-anchor="start" x="935" y="820">Chocolate</text><text fill="gray" font-size="10" text-anchor="start" x="935" y="840">RGB(210, 105, 30)</text><rect fill="rgb(245, 245, 220)" height="60" stroke="black" stroke-width="1" width="60" x="20" y="880" /><text fill="black" font-size="14" font-weight="bold" text-anchor="start" x="95" y="900">Beige</text><text fill="gray" font-size="10" text-anchor="start" x="95" y="920">RGB(245, 245, 220)</text><rect fill="rgb(192, 64, 0)" height="60" stroke="black" stroke-width="1" width="60" x="300" y="880" /><text fill="black" font-size="14" font-weight="bold" text-anchor="start" x="375" y="900">Mahogany</text><text fill="gray" font-size="10" text-anchor="start" x="375" y="920">RGB(192, 64, 0)</text><rect fill="rgb(160, 82, 45)" height="60" stroke="black" stroke-width="1" width="60" x="580" y="880" /><text fill="black" font-size="14" font-weight="bold" text-anchor="start" x="655" y="900">Sienna</text><text fill="gray" font-size="10" text-anchor="start" x="655" y="920">RGB(160, 82, 45)</text><rect fill="rgb(184, 115, 51)" height="60" stroke="black" stroke-width="1" width="60" x="860" y="880" /><text fill="black" font-size="14" font-weight="bold" text-anchor="start" x="935" y="900">Copper</text><text fill="gray" font-size="10" text-anchor="start" x="935" y="920">RGB(184, 115, 51)</text><rect fill="rgb(230, 230, 250)" height="60" stroke="black" stroke-width="1" width="60" x="20" y="960" /><text fill="black" font-size="14" font-weight="bold" text-anchor="start" x="95" y="980">Lavender</text><text fill="gray" font-size="10" text-anchor="start" x="95" y="1000">RGB(230, 230, 250)</text><rect fill="rgb(0, 255, 255)" height="60" stroke="black" stroke-width="1" width="60" x="300" y="960" /><text fill="black" font-size="14" font-weight="bold" text-anchor="start" x="375" y="980">Aqua</text><text fill="gray" font-size="10" text-anchor="start" x="375" y="1000">RGB(0, 255, 255)</text><rect fill="rgb(0, 255, 0)" height="60" stroke="black" stroke-width="1" width="60" x="580" y="960" /><text fill="black" font-size="14" font-weight="bold" text-anchor="start" x="655" y="980">Lime</text><text fill="gray" font-size="10" text-anchor="start" x="655" y="1000">RGB(0, 255, 0)</text><rect fill="rgb(255, 127, 80)" height="60" stroke="black" stroke-width="1" width="60" x="860" y="960" /><text fill="black" font-size="14" font-weight="bold" text-anchor="start" x="935" y="980">Coral</text><text fill="gray" font-size="10" text-anchor="start" x="935" y="1000">RGB(255, 127, 80)</text></svg>